#usda 1.0
(
    defaultPrim = "TechUnicornBridgeRepaired"
    metersPerUnit = 1
    upAxis = "Y"
)
def Xform "TechUnicornBridgeRepaired" {
    def Mesh "Surface" {
        uniform token subdivisionScheme = "none"
        bool doubleSided = true
        point3f[] points = [
            (361.5765, 15.0000, -463.6941),
            (593.5000, 29.2000, -530.0000),
            (358.4235, 15.0000, -476.3059),
            (361.5765, 15.0000, -463.6941),
            (606.5000, 29.2000, -530.0000),
            (593.5000, 29.2000, -530.0000),
            (606.5000, 29.2000, -530.0000),
            (353.5000, 43.4000, -590.0000),
            (593.5000, 29.2000, -530.0000),
            (606.5000, 29.2000, -530.0000),
            (366.5000, 43.4000, -590.0000),
            (353.5000, 43.4000, -590.0000),
            (366.5000, 43.4000, -590.0000),
            (593.5000, 57.6000, -650.0000),
            (353.5000, 43.4000, -590.0000),
            (366.5000, 43.4000, -590.0000),
            (606.5000, 57.6000, -650.0000),
            (593.5000, 57.6000, -650.0000),
            (606.5000, 57.6000, -650.0000),
            (353.5000, 71.8000, -710.0000),
            (593.5000, 57.6000, -650.0000),
            (606.5000, 57.6000, -650.0000),
            (366.5000, 71.8000, -710.0000),
            (353.5000, 71.8000, -710.0000),
            (366.5000, 71.8000, -710.0000),
            (598.6743, 86.0000, -766.3634),
            (353.5000, 71.8000, -710.0000),
            (366.5000, 71.8000, -710.0000),
            (601.3257, 86.0000, -753.6366),
            (598.6743, 86.0000, -766.3634)
        ]
        int[] faceVertexCounts = [3, 3, 3, 3, 3, 3, 3, 3, 3, 3]
        int[] faceVertexIndices = [0, 1, 2, 3, 4, 5, 6, 7, 8, 9, 10, 11, 12, 13, 14, 15, 16, 17, 18, 19, 20, 21, 22, 23, 24, 25, 26, 27, 28, 29]
        color3f[] primvars:displayColor = [(0.18, 0.32, 0.38)] (interpolation = "constant")
    }
}
